<mxfile host="app.diagrams.net" modified="2024-09-05T13:58:58.804Z" agent="Mozilla/5.0 (X11; Linux x86_64; rv:128.0) Gecko/20100101 Firefox/128.0" etag="xM6Sg8_62kmw4LlNmtYj" version="24.4.0" type="github">
  <diagram name="Page-1" id="EGjIxekPwjg60Np0V5Q-">
    <mxGraphModel dx="1798" dy="978" grid="1" gridSize="10" guides="1" tooltips="1" connect="1" arrows="1" fold="1" page="1" pageScale="1" pageWidth="850" pageHeight="1100" math="0" shadow="0">
      <root>
        <mxCell id="0" />
        <mxCell id="1" parent="0" />
        <mxCell id="11CK9iJi00jFI3J6nmtW-40" value="" style="ellipse;whiteSpace=wrap;html=1;aspect=fixed;rounded=0;strokeColor=default;align=center;verticalAlign=middle;fontFamily=Helvetica;fontSize=12;fontColor=default;labelBackgroundColor=default;fillColor=default;" vertex="1" parent="1">
          <mxGeometry x="480" y="170" width="20" height="20" as="geometry" />
        </mxCell>
        <mxCell id="11CK9iJi00jFI3J6nmtW-14" value="" style="edgeStyle=orthogonalEdgeStyle;rounded=0;orthogonalLoop=1;jettySize=auto;html=1;fontFamily=Helvetica;fontSize=12;fontColor=default;endArrow=none;endFill=0;" edge="1" parent="1" source="11CK9iJi00jFI3J6nmtW-12">
          <mxGeometry relative="1" as="geometry">
            <mxPoint x="220" y="410" as="targetPoint" />
          </mxGeometry>
        </mxCell>
        <mxCell id="11CK9iJi00jFI3J6nmtW-18" value="" style="edgeStyle=orthogonalEdgeStyle;rounded=0;orthogonalLoop=1;jettySize=auto;html=1;fontFamily=Helvetica;fontSize=12;fontColor=default;endArrow=none;endFill=0;" edge="1" parent="1" source="11CK9iJi00jFI3J6nmtW-12" target="11CK9iJi00jFI3J6nmtW-17">
          <mxGeometry relative="1" as="geometry" />
        </mxCell>
        <mxCell id="11CK9iJi00jFI3J6nmtW-87" value="" style="edgeStyle=none;rounded=0;orthogonalLoop=1;jettySize=auto;html=1;strokeColor=default;align=center;verticalAlign=middle;fontFamily=Helvetica;fontSize=12;fontColor=default;labelBackgroundColor=default;endArrow=none;endFill=0;" edge="1" parent="1" source="11CK9iJi00jFI3J6nmtW-12" target="11CK9iJi00jFI3J6nmtW-86">
          <mxGeometry relative="1" as="geometry" />
        </mxCell>
        <mxCell id="11CK9iJi00jFI3J6nmtW-12" value="Person" style="whiteSpace=wrap;html=1;align=center;rounded=0;strokeColor=default;verticalAlign=middle;fontFamily=Helvetica;fontSize=12;fontColor=default;fillColor=default;" vertex="1" parent="1">
          <mxGeometry x="170" y="430" width="100" height="40" as="geometry" />
        </mxCell>
        <mxCell id="11CK9iJi00jFI3J6nmtW-26" value="" style="edgeStyle=orthogonalEdgeStyle;rounded=0;orthogonalLoop=1;jettySize=auto;html=1;fontFamily=Helvetica;fontSize=12;fontColor=default;endArrow=none;endFill=0;" edge="1" parent="1" source="11CK9iJi00jFI3J6nmtW-16" target="11CK9iJi00jFI3J6nmtW-25">
          <mxGeometry relative="1" as="geometry" />
        </mxCell>
        <mxCell id="11CK9iJi00jFI3J6nmtW-16" value="Species" style="whiteSpace=wrap;html=1;align=center;rounded=0;strokeColor=default;verticalAlign=middle;fontFamily=Helvetica;fontSize=12;fontColor=default;fillColor=default;" vertex="1" parent="1">
          <mxGeometry x="460" y="430" width="100" height="40" as="geometry" />
        </mxCell>
        <mxCell id="11CK9iJi00jFI3J6nmtW-19" value="" style="edgeStyle=orthogonalEdgeStyle;rounded=0;orthogonalLoop=1;jettySize=auto;html=1;fontFamily=Helvetica;fontSize=12;fontColor=default;endArrow=none;endFill=0;" edge="1" parent="1" source="11CK9iJi00jFI3J6nmtW-17" target="11CK9iJi00jFI3J6nmtW-16">
          <mxGeometry relative="1" as="geometry" />
        </mxCell>
        <mxCell id="11CK9iJi00jFI3J6nmtW-17" value="belongsTo" style="rhombus;whiteSpace=wrap;html=1;rounded=0;" vertex="1" parent="1">
          <mxGeometry x="330" y="410" width="80" height="80" as="geometry" />
        </mxCell>
        <mxCell id="11CK9iJi00jFI3J6nmtW-20" value="&lt;div&gt;Planet&lt;/div&gt;" style="whiteSpace=wrap;html=1;align=center;rounded=0;strokeColor=default;verticalAlign=middle;fontFamily=Helvetica;fontSize=12;fontColor=default;fillColor=default;" vertex="1" parent="1">
          <mxGeometry x="460" y="670" width="100" height="40" as="geometry" />
        </mxCell>
        <mxCell id="11CK9iJi00jFI3J6nmtW-27" value="" style="edgeStyle=orthogonalEdgeStyle;rounded=0;orthogonalLoop=1;jettySize=auto;html=1;fontFamily=Helvetica;fontSize=12;fontColor=default;endArrow=none;endFill=0;" edge="1" parent="1" source="11CK9iJi00jFI3J6nmtW-25" target="11CK9iJi00jFI3J6nmtW-20">
          <mxGeometry relative="1" as="geometry" />
        </mxCell>
        <mxCell id="11CK9iJi00jFI3J6nmtW-25" value="inhabitats" style="rhombus;whiteSpace=wrap;html=1;rounded=0;" vertex="1" parent="1">
          <mxGeometry x="470" y="530" width="80" height="80" as="geometry" />
        </mxCell>
        <mxCell id="11CK9iJi00jFI3J6nmtW-34" style="edgeStyle=orthogonalEdgeStyle;rounded=0;orthogonalLoop=1;jettySize=auto;html=1;entryX=0.75;entryY=0;entryDx=0;entryDy=0;strokeColor=default;align=center;verticalAlign=middle;fontFamily=Helvetica;fontSize=12;fontColor=default;labelBackgroundColor=default;endArrow=none;endFill=0;" edge="1" parent="1" target="11CK9iJi00jFI3J6nmtW-16">
          <mxGeometry relative="1" as="geometry">
            <mxPoint x="525" y="400" as="sourcePoint" />
            <Array as="points">
              <mxPoint x="525" y="430" />
            </Array>
          </mxGeometry>
        </mxCell>
        <mxCell id="11CK9iJi00jFI3J6nmtW-44" value="" style="group" vertex="1" connectable="0" parent="1">
          <mxGeometry x="460" y="360" width="50" height="50" as="geometry" />
        </mxCell>
        <mxCell id="11CK9iJi00jFI3J6nmtW-41" value="" style="ellipse;whiteSpace=wrap;html=1;aspect=fixed;rounded=0;strokeColor=default;align=center;verticalAlign=middle;fontFamily=Helvetica;fontSize=12;fontColor=default;labelBackgroundColor=default;fillColor=default;" vertex="1" parent="11CK9iJi00jFI3J6nmtW-44">
          <mxGeometry x="15" y="30" width="20" height="20" as="geometry" />
        </mxCell>
        <mxCell id="11CK9iJi00jFI3J6nmtW-43" value="name" style="text;html=1;align=center;verticalAlign=middle;resizable=0;points=[];autosize=1;strokeColor=none;fillColor=none;fontFamily=Helvetica;fontSize=12;fontColor=default;labelBackgroundColor=default;" vertex="1" parent="11CK9iJi00jFI3J6nmtW-44">
          <mxGeometry width="50" height="30" as="geometry" />
        </mxCell>
        <mxCell id="11CK9iJi00jFI3J6nmtW-46" value="" style="group" vertex="1" connectable="0" parent="1">
          <mxGeometry x="500" y="360" width="50" height="50" as="geometry" />
        </mxCell>
        <mxCell id="11CK9iJi00jFI3J6nmtW-47" value="" style="ellipse;whiteSpace=wrap;html=1;aspect=fixed;rounded=0;strokeColor=default;align=center;verticalAlign=middle;fontFamily=Helvetica;fontSize=12;fontColor=default;labelBackgroundColor=default;fillColor=default;" vertex="1" parent="11CK9iJi00jFI3J6nmtW-46">
          <mxGeometry x="15" y="30" width="20" height="20" as="geometry" />
        </mxCell>
        <mxCell id="11CK9iJi00jFI3J6nmtW-48" value="traits" style="text;html=1;align=center;verticalAlign=middle;resizable=0;points=[];autosize=1;strokeColor=none;fillColor=none;fontFamily=Helvetica;fontSize=12;fontColor=default;labelBackgroundColor=default;" vertex="1" parent="11CK9iJi00jFI3J6nmtW-46">
          <mxGeometry width="50" height="30" as="geometry" />
        </mxCell>
        <mxCell id="11CK9iJi00jFI3J6nmtW-54" value="" style="group" vertex="1" connectable="0" parent="1">
          <mxGeometry x="440" y="220" width="50" height="50" as="geometry" />
        </mxCell>
        <mxCell id="11CK9iJi00jFI3J6nmtW-55" value="" style="ellipse;whiteSpace=wrap;html=1;aspect=fixed;rounded=0;strokeColor=default;align=center;verticalAlign=middle;fontFamily=Helvetica;fontSize=12;fontColor=default;labelBackgroundColor=default;fillColor=default;" vertex="1" parent="11CK9iJi00jFI3J6nmtW-54">
          <mxGeometry x="15" y="30" width="20" height="20" as="geometry" />
        </mxCell>
        <mxCell id="11CK9iJi00jFI3J6nmtW-57" value="avrage_livespan" style="group" vertex="1" connectable="0" parent="1">
          <mxGeometry x="530" y="340" width="50" height="50" as="geometry" />
        </mxCell>
        <mxCell id="11CK9iJi00jFI3J6nmtW-58" value="" style="ellipse;whiteSpace=wrap;html=1;aspect=fixed;rounded=0;strokeColor=default;align=center;verticalAlign=middle;fontFamily=Helvetica;fontSize=12;fontColor=default;labelBackgroundColor=default;fillColor=default;" vertex="1" parent="11CK9iJi00jFI3J6nmtW-57">
          <mxGeometry x="15" y="30" width="20" height="20" as="geometry" />
        </mxCell>
        <mxCell id="11CK9iJi00jFI3J6nmtW-59" value="" style="edgeStyle=none;rounded=0;orthogonalLoop=1;jettySize=auto;html=1;strokeColor=default;align=center;verticalAlign=middle;fontFamily=Helvetica;fontSize=12;fontColor=default;labelBackgroundColor=default;endArrow=none;endFill=0;entryX=0.25;entryY=0;entryDx=0;entryDy=0;" edge="1" parent="1" source="11CK9iJi00jFI3J6nmtW-41" target="11CK9iJi00jFI3J6nmtW-16">
          <mxGeometry relative="1" as="geometry" />
        </mxCell>
        <mxCell id="11CK9iJi00jFI3J6nmtW-67" style="rounded=0;orthogonalLoop=1;jettySize=auto;html=1;strokeColor=default;align=center;verticalAlign=middle;fontFamily=Helvetica;fontSize=12;fontColor=default;labelBackgroundColor=default;endArrow=none;endFill=0;" edge="1" parent="1" source="11CK9iJi00jFI3J6nmtW-58">
          <mxGeometry relative="1" as="geometry">
            <mxPoint x="555" y="430" as="targetPoint" />
          </mxGeometry>
        </mxCell>
        <mxCell id="11CK9iJi00jFI3J6nmtW-68" value="name" style="group" vertex="1" connectable="0" parent="1">
          <mxGeometry x="195" y="360" width="50" height="50" as="geometry" />
        </mxCell>
        <mxCell id="11CK9iJi00jFI3J6nmtW-69" value="" style="ellipse;whiteSpace=wrap;html=1;aspect=fixed;rounded=0;strokeColor=default;align=center;verticalAlign=middle;fontFamily=Helvetica;fontSize=12;fontColor=default;labelBackgroundColor=default;fillColor=default;" vertex="1" parent="11CK9iJi00jFI3J6nmtW-68">
          <mxGeometry x="15" y="30" width="20" height="20" as="geometry" />
        </mxCell>
        <mxCell id="11CK9iJi00jFI3J6nmtW-71" value="name" style="group" vertex="1" connectable="0" parent="1">
          <mxGeometry x="510" y="610" width="50" height="50" as="geometry" />
        </mxCell>
        <mxCell id="11CK9iJi00jFI3J6nmtW-72" value="" style="ellipse;whiteSpace=wrap;html=1;aspect=fixed;rounded=0;strokeColor=default;align=center;verticalAlign=middle;fontFamily=Helvetica;fontSize=12;fontColor=default;labelBackgroundColor=default;fillColor=default;" vertex="1" parent="11CK9iJi00jFI3J6nmtW-71">
          <mxGeometry x="15" y="30" width="20" height="20" as="geometry" />
        </mxCell>
        <mxCell id="11CK9iJi00jFI3J6nmtW-73" value="" style="edgeStyle=none;rounded=0;orthogonalLoop=1;jettySize=auto;html=1;strokeColor=default;align=center;verticalAlign=middle;fontFamily=Helvetica;fontSize=12;fontColor=default;labelBackgroundColor=default;endArrow=none;endFill=0;" edge="1" parent="1" source="11CK9iJi00jFI3J6nmtW-72" target="11CK9iJi00jFI3J6nmtW-20">
          <mxGeometry relative="1" as="geometry" />
        </mxCell>
        <mxCell id="11CK9iJi00jFI3J6nmtW-74" value="sector" style="group" vertex="1" connectable="0" parent="1">
          <mxGeometry x="550" y="610" width="90" height="100" as="geometry" />
        </mxCell>
        <mxCell id="11CK9iJi00jFI3J6nmtW-75" value="" style="ellipse;whiteSpace=wrap;html=1;aspect=fixed;rounded=0;strokeColor=default;align=center;verticalAlign=middle;fontFamily=Helvetica;fontSize=12;fontColor=default;labelBackgroundColor=default;fillColor=default;" vertex="1" parent="11CK9iJi00jFI3J6nmtW-74">
          <mxGeometry x="15" y="30" width="20" height="20" as="geometry" />
        </mxCell>
        <mxCell id="11CK9iJi00jFI3J6nmtW-83" value="rating" style="group" vertex="1" connectable="0" parent="11CK9iJi00jFI3J6nmtW-74">
          <mxGeometry x="40" y="50" width="50" height="50" as="geometry" />
        </mxCell>
        <mxCell id="11CK9iJi00jFI3J6nmtW-84" value="" style="ellipse;whiteSpace=wrap;html=1;aspect=fixed;rounded=0;strokeColor=default;align=center;verticalAlign=middle;fontFamily=Helvetica;fontSize=12;fontColor=default;labelBackgroundColor=default;fillColor=default;" vertex="1" parent="11CK9iJi00jFI3J6nmtW-83">
          <mxGeometry x="15" y="30" width="20" height="20" as="geometry" />
        </mxCell>
        <mxCell id="11CK9iJi00jFI3J6nmtW-78" style="edgeStyle=none;rounded=0;orthogonalLoop=1;jettySize=auto;html=1;strokeColor=default;align=center;verticalAlign=middle;fontFamily=Helvetica;fontSize=12;fontColor=default;labelBackgroundColor=default;endArrow=none;endFill=0;" edge="1" parent="1" source="11CK9iJi00jFI3J6nmtW-75" target="11CK9iJi00jFI3J6nmtW-20">
          <mxGeometry relative="1" as="geometry" />
        </mxCell>
        <mxCell id="11CK9iJi00jFI3J6nmtW-85" style="edgeStyle=none;rounded=0;orthogonalLoop=1;jettySize=auto;html=1;entryX=1;entryY=0.75;entryDx=0;entryDy=0;strokeColor=default;align=center;verticalAlign=middle;fontFamily=Helvetica;fontSize=12;fontColor=default;labelBackgroundColor=default;endArrow=none;endFill=0;" edge="1" parent="1" source="11CK9iJi00jFI3J6nmtW-84" target="11CK9iJi00jFI3J6nmtW-20">
          <mxGeometry relative="1" as="geometry" />
        </mxCell>
        <mxCell id="11CK9iJi00jFI3J6nmtW-88" style="edgeStyle=none;rounded=0;orthogonalLoop=1;jettySize=auto;html=1;strokeColor=default;align=center;verticalAlign=middle;fontFamily=Helvetica;fontSize=12;fontColor=default;labelBackgroundColor=default;endArrow=none;endFill=0;" edge="1" parent="1" source="11CK9iJi00jFI3J6nmtW-86" target="11CK9iJi00jFI3J6nmtW-20">
          <mxGeometry relative="1" as="geometry" />
        </mxCell>
        <mxCell id="11CK9iJi00jFI3J6nmtW-86" value="bornOn" style="rhombus;whiteSpace=wrap;html=1;rounded=0;" vertex="1" parent="1">
          <mxGeometry x="320" y="530" width="80" height="80" as="geometry" />
        </mxCell>
        <mxCell id="11CK9iJi00jFI3J6nmtW-91" style="edgeStyle=orthogonalEdgeStyle;rounded=0;orthogonalLoop=1;jettySize=auto;html=1;strokeColor=default;align=center;verticalAlign=middle;fontFamily=Helvetica;fontSize=12;fontColor=default;labelBackgroundColor=default;endArrow=none;endFill=0;entryX=0.5;entryY=0;entryDx=0;entryDy=0;exitX=0.5;exitY=0;exitDx=0;exitDy=0;" edge="1" parent="1" source="11CK9iJi00jFI3J6nmtW-89" target="11CK9iJi00jFI3J6nmtW-90">
          <mxGeometry relative="1" as="geometry">
            <mxPoint x="120" y="730" as="targetPoint" />
          </mxGeometry>
        </mxCell>
        <mxCell id="11CK9iJi00jFI3J6nmtW-161" value="" style="edgeStyle=none;rounded=0;orthogonalLoop=1;jettySize=auto;html=1;strokeColor=default;align=center;verticalAlign=middle;fontFamily=Helvetica;fontSize=12;fontColor=default;labelBackgroundColor=default;endArrow=none;endFill=0;" edge="1" parent="1" source="11CK9iJi00jFI3J6nmtW-89" target="11CK9iJi00jFI3J6nmtW-160">
          <mxGeometry relative="1" as="geometry" />
        </mxCell>
        <mxCell id="11CK9iJi00jFI3J6nmtW-89" value="Author" style="whiteSpace=wrap;html=1;align=center;rounded=0;strokeColor=default;verticalAlign=middle;fontFamily=Helvetica;fontSize=12;fontColor=default;fillColor=default;" vertex="1" parent="1">
          <mxGeometry x="100" y="770" width="100" height="40" as="geometry" />
        </mxCell>
        <mxCell id="11CK9iJi00jFI3J6nmtW-149" style="edgeStyle=none;rounded=0;orthogonalLoop=1;jettySize=auto;html=1;strokeColor=default;align=center;verticalAlign=middle;fontFamily=Helvetica;fontSize=12;fontColor=default;labelBackgroundColor=default;endArrow=none;endFill=0;" edge="1" parent="1" source="11CK9iJi00jFI3J6nmtW-90" target="11CK9iJi00jFI3J6nmtW-124">
          <mxGeometry relative="1" as="geometry" />
        </mxCell>
        <mxCell id="11CK9iJi00jFI3J6nmtW-90" value="&lt;div&gt;Traveler&lt;/div&gt;" style="whiteSpace=wrap;html=1;align=center;rounded=0;strokeColor=default;verticalAlign=middle;fontFamily=Helvetica;fontSize=12;fontColor=default;fillColor=default;" vertex="1" parent="1">
          <mxGeometry x="-10" y="770" width="100" height="40" as="geometry" />
        </mxCell>
        <mxCell id="11CK9iJi00jFI3J6nmtW-93" value="" style="edgeStyle=none;rounded=0;orthogonalLoop=1;jettySize=auto;html=1;strokeColor=default;align=center;verticalAlign=middle;fontFamily=Helvetica;fontSize=12;fontColor=default;labelBackgroundColor=default;endArrow=none;endFill=0;exitX=0.5;exitY=1;exitDx=0;exitDy=0;shape=flexArrow;startArrow=block;fillColor=#000000;" edge="1" parent="1" source="11CK9iJi00jFI3J6nmtW-12">
          <mxGeometry relative="1" as="geometry">
            <mxPoint x="140" y="500" as="sourcePoint" />
            <mxPoint x="220" y="750" as="targetPoint" />
          </mxGeometry>
        </mxCell>
        <mxCell id="11CK9iJi00jFI3J6nmtW-151" style="edgeStyle=none;rounded=0;orthogonalLoop=1;jettySize=auto;html=1;strokeColor=default;align=center;verticalAlign=middle;fontFamily=Helvetica;fontSize=12;fontColor=default;labelBackgroundColor=default;endArrow=none;endFill=0;exitX=0.5;exitY=0;exitDx=0;exitDy=0;" edge="1" parent="1" source="11CK9iJi00jFI3J6nmtW-94">
          <mxGeometry relative="1" as="geometry">
            <mxPoint x="150" y="750" as="targetPoint" />
            <Array as="points">
              <mxPoint x="260" y="750" />
            </Array>
          </mxGeometry>
        </mxCell>
        <mxCell id="11CK9iJi00jFI3J6nmtW-195" value="" style="edgeStyle=none;rounded=0;orthogonalLoop=1;jettySize=auto;html=1;strokeColor=default;align=center;verticalAlign=middle;fontFamily=Helvetica;fontSize=12;fontColor=default;labelBackgroundColor=default;endArrow=none;endFill=0;" edge="1" parent="1" source="11CK9iJi00jFI3J6nmtW-94" target="11CK9iJi00jFI3J6nmtW-194">
          <mxGeometry relative="1" as="geometry" />
        </mxCell>
        <mxCell id="11CK9iJi00jFI3J6nmtW-94" value="ImportantPerson" style="whiteSpace=wrap;html=1;align=center;rounded=0;strokeColor=default;verticalAlign=middle;fontFamily=Helvetica;fontSize=12;fontColor=default;fillColor=default;" vertex="1" parent="1">
          <mxGeometry x="210" y="770" width="100" height="40" as="geometry" />
        </mxCell>
        <mxCell id="11CK9iJi00jFI3J6nmtW-98" value="" style="edgeStyle=none;rounded=0;orthogonalLoop=1;jettySize=auto;html=1;strokeColor=default;align=center;verticalAlign=middle;fontFamily=Helvetica;fontSize=12;fontColor=default;labelBackgroundColor=default;endArrow=none;endFill=0;" edge="1" parent="1" source="11CK9iJi00jFI3J6nmtW-96" target="11CK9iJi00jFI3J6nmtW-97">
          <mxGeometry relative="1" as="geometry" />
        </mxCell>
        <mxCell id="11CK9iJi00jFI3J6nmtW-184" value="" style="edgeStyle=none;rounded=0;orthogonalLoop=1;jettySize=auto;html=1;strokeColor=default;align=center;verticalAlign=middle;fontFamily=Helvetica;fontSize=12;fontColor=default;labelBackgroundColor=default;endArrow=none;endFill=0;" edge="1" parent="1" source="11CK9iJi00jFI3J6nmtW-96" target="11CK9iJi00jFI3J6nmtW-183">
          <mxGeometry relative="1" as="geometry" />
        </mxCell>
        <mxCell id="11CK9iJi00jFI3J6nmtW-186" value="" style="edgeStyle=none;rounded=0;orthogonalLoop=1;jettySize=auto;html=1;strokeColor=default;align=center;verticalAlign=middle;fontFamily=Helvetica;fontSize=12;fontColor=default;labelBackgroundColor=default;endArrow=none;endFill=0;" edge="1" parent="1" source="11CK9iJi00jFI3J6nmtW-96" target="11CK9iJi00jFI3J6nmtW-166">
          <mxGeometry relative="1" as="geometry" />
        </mxCell>
        <mxCell id="11CK9iJi00jFI3J6nmtW-96" value="Organisation" style="whiteSpace=wrap;html=1;align=center;rounded=0;strokeColor=default;verticalAlign=middle;fontFamily=Helvetica;fontSize=12;fontColor=default;fillColor=default;" vertex="1" parent="1">
          <mxGeometry x="-150" y="670" width="100" height="40" as="geometry" />
        </mxCell>
        <mxCell id="11CK9iJi00jFI3J6nmtW-102" value="" style="edgeStyle=none;rounded=0;orthogonalLoop=1;jettySize=auto;html=1;strokeColor=default;align=center;verticalAlign=middle;fontFamily=Helvetica;fontSize=12;fontColor=default;labelBackgroundColor=default;endArrow=none;endFill=0;entryX=0.5;entryY=0;entryDx=0;entryDy=0;" edge="1" parent="1" source="11CK9iJi00jFI3J6nmtW-97" target="11CK9iJi00jFI3J6nmtW-122">
          <mxGeometry relative="1" as="geometry">
            <mxPoint x="190" y="1010" as="targetPoint" />
          </mxGeometry>
        </mxCell>
        <mxCell id="11CK9iJi00jFI3J6nmtW-97" value="produces" style="rhombus;whiteSpace=wrap;html=1;rounded=0;" vertex="1" parent="1">
          <mxGeometry x="-140" y="870" width="80" height="80" as="geometry" />
        </mxCell>
        <mxCell id="11CK9iJi00jFI3J6nmtW-122" value="Spacecraft" style="whiteSpace=wrap;html=1;align=center;rounded=0;strokeColor=default;verticalAlign=middle;fontFamily=Helvetica;fontSize=12;fontColor=default;fillColor=default;" vertex="1" parent="1">
          <mxGeometry x="-150" y="1010" width="100" height="40" as="geometry" />
        </mxCell>
        <mxCell id="11CK9iJi00jFI3J6nmtW-123" value="" style="edgeStyle=none;rounded=0;orthogonalLoop=1;jettySize=auto;html=1;strokeColor=default;align=center;verticalAlign=middle;fontFamily=Helvetica;fontSize=12;fontColor=default;labelBackgroundColor=default;endArrow=none;endFill=0;entryX=1;entryY=0;entryDx=0;entryDy=0;" edge="1" parent="1" source="11CK9iJi00jFI3J6nmtW-124" target="11CK9iJi00jFI3J6nmtW-122">
          <mxGeometry relative="1" as="geometry" />
        </mxCell>
        <mxCell id="11CK9iJi00jFI3J6nmtW-124" value="uses" style="rhombus;whiteSpace=wrap;html=1;rounded=0;" vertex="1" parent="1">
          <mxGeometry x="-50" y="870" width="80" height="80" as="geometry" />
        </mxCell>
        <mxCell id="11CK9iJi00jFI3J6nmtW-127" value="start_date" style="group" vertex="1" connectable="0" parent="1">
          <mxGeometry x="20" y="920" width="50" height="50" as="geometry" />
        </mxCell>
        <mxCell id="11CK9iJi00jFI3J6nmtW-128" value="" style="ellipse;whiteSpace=wrap;html=1;aspect=fixed;rounded=0;strokeColor=default;align=center;verticalAlign=middle;fontFamily=Helvetica;fontSize=12;fontColor=default;labelBackgroundColor=default;fillColor=default;" vertex="1" parent="11CK9iJi00jFI3J6nmtW-127">
          <mxGeometry x="15" y="30" width="20" height="20" as="geometry" />
        </mxCell>
        <mxCell id="11CK9iJi00jFI3J6nmtW-129" value="end_date" style="group" vertex="1" connectable="0" parent="1">
          <mxGeometry x="30" y="870" width="50" height="50" as="geometry" />
        </mxCell>
        <mxCell id="11CK9iJi00jFI3J6nmtW-130" value="" style="ellipse;whiteSpace=wrap;html=1;aspect=fixed;rounded=0;strokeColor=default;align=center;verticalAlign=middle;fontFamily=Helvetica;fontSize=12;fontColor=default;labelBackgroundColor=default;fillColor=default;" vertex="1" parent="11CK9iJi00jFI3J6nmtW-129">
          <mxGeometry x="15" y="30" width="20" height="20" as="geometry" />
        </mxCell>
        <mxCell id="11CK9iJi00jFI3J6nmtW-132" style="edgeStyle=none;rounded=0;orthogonalLoop=1;jettySize=auto;html=1;exitX=0;exitY=0.5;exitDx=0;exitDy=0;strokeColor=default;align=center;verticalAlign=middle;fontFamily=Helvetica;fontSize=12;fontColor=default;labelBackgroundColor=default;endArrow=none;endFill=0;" edge="1" parent="1" source="11CK9iJi00jFI3J6nmtW-130" target="11CK9iJi00jFI3J6nmtW-124">
          <mxGeometry relative="1" as="geometry" />
        </mxCell>
        <mxCell id="11CK9iJi00jFI3J6nmtW-133" value="" style="edgeStyle=none;rounded=0;orthogonalLoop=1;jettySize=auto;html=1;strokeColor=default;align=center;verticalAlign=middle;fontFamily=Helvetica;fontSize=12;fontColor=default;labelBackgroundColor=default;endArrow=none;endFill=0;" edge="1" parent="1" source="11CK9iJi00jFI3J6nmtW-134" target="11CK9iJi00jFI3J6nmtW-139">
          <mxGeometry relative="1" as="geometry" />
        </mxCell>
        <mxCell id="11CK9iJi00jFI3J6nmtW-134" value="&lt;div&gt;Traveler&lt;/div&gt;" style="whiteSpace=wrap;html=1;align=center;rounded=0;strokeColor=default;verticalAlign=middle;fontFamily=Helvetica;fontSize=12;fontColor=default;fillColor=default;" vertex="1" parent="1">
          <mxGeometry x="910" y="990" width="100" height="40" as="geometry" />
        </mxCell>
        <mxCell id="11CK9iJi00jFI3J6nmtW-135" value="" style="edgeStyle=none;rounded=0;orthogonalLoop=1;jettySize=auto;html=1;strokeColor=default;align=center;verticalAlign=middle;fontFamily=Helvetica;fontSize=12;fontColor=default;labelBackgroundColor=default;endArrow=none;endFill=0;" edge="1" parent="1" source="11CK9iJi00jFI3J6nmtW-136" target="11CK9iJi00jFI3J6nmtW-141">
          <mxGeometry relative="1" as="geometry" />
        </mxCell>
        <mxCell id="11CK9iJi00jFI3J6nmtW-136" value="Spacecraft" style="whiteSpace=wrap;html=1;align=center;rounded=0;strokeColor=default;verticalAlign=middle;fontFamily=Helvetica;fontSize=12;fontColor=default;fillColor=default;" vertex="1" parent="1">
          <mxGeometry x="560" y="1210" width="100" height="40" as="geometry" />
        </mxCell>
        <mxCell id="11CK9iJi00jFI3J6nmtW-137" value="Juorney" style="whiteSpace=wrap;html=1;align=center;rounded=0;strokeColor=default;verticalAlign=middle;fontFamily=Helvetica;fontSize=12;fontColor=default;fillColor=default;" vertex="1" parent="1">
          <mxGeometry x="910" y="1210" width="100" height="40" as="geometry" />
        </mxCell>
        <mxCell id="11CK9iJi00jFI3J6nmtW-138" value="" style="edgeStyle=none;rounded=0;orthogonalLoop=1;jettySize=auto;html=1;strokeColor=default;align=center;verticalAlign=middle;fontFamily=Helvetica;fontSize=12;fontColor=default;labelBackgroundColor=default;endArrow=none;endFill=0;" edge="1" parent="1" source="11CK9iJi00jFI3J6nmtW-139" target="11CK9iJi00jFI3J6nmtW-137">
          <mxGeometry relative="1" as="geometry" />
        </mxCell>
        <mxCell id="11CK9iJi00jFI3J6nmtW-139" value="goesOn" style="rhombus;whiteSpace=wrap;html=1;rounded=0;" vertex="1" parent="1">
          <mxGeometry x="920" y="1090" width="80" height="80" as="geometry" />
        </mxCell>
        <mxCell id="11CK9iJi00jFI3J6nmtW-140" value="" style="edgeStyle=none;rounded=0;orthogonalLoop=1;jettySize=auto;html=1;strokeColor=default;align=center;verticalAlign=middle;fontFamily=Helvetica;fontSize=12;fontColor=default;labelBackgroundColor=default;endArrow=none;endFill=0;" edge="1" parent="1" source="11CK9iJi00jFI3J6nmtW-141" target="11CK9iJi00jFI3J6nmtW-137">
          <mxGeometry relative="1" as="geometry" />
        </mxCell>
        <mxCell id="11CK9iJi00jFI3J6nmtW-141" value="usedIn" style="rhombus;whiteSpace=wrap;html=1;rounded=0;" vertex="1" parent="1">
          <mxGeometry x="750" y="1190" width="80" height="80" as="geometry" />
        </mxCell>
        <mxCell id="11CK9iJi00jFI3J6nmtW-142" value="start_date" style="group" vertex="1" connectable="0" parent="1">
          <mxGeometry x="1025" y="1150" width="50" height="50" as="geometry" />
        </mxCell>
        <mxCell id="11CK9iJi00jFI3J6nmtW-143" value="" style="ellipse;whiteSpace=wrap;html=1;aspect=fixed;rounded=0;strokeColor=default;align=center;verticalAlign=middle;fontFamily=Helvetica;fontSize=12;fontColor=default;labelBackgroundColor=default;fillColor=default;" vertex="1" parent="11CK9iJi00jFI3J6nmtW-142">
          <mxGeometry x="15" y="30" width="20" height="20" as="geometry" />
        </mxCell>
        <mxCell id="11CK9iJi00jFI3J6nmtW-144" value="end_date" style="group" vertex="1" connectable="0" parent="1">
          <mxGeometry x="1025" y="1200" width="50" height="50" as="geometry" />
        </mxCell>
        <mxCell id="11CK9iJi00jFI3J6nmtW-145" value="" style="ellipse;whiteSpace=wrap;html=1;aspect=fixed;rounded=0;strokeColor=default;align=center;verticalAlign=middle;fontFamily=Helvetica;fontSize=12;fontColor=default;labelBackgroundColor=default;fillColor=default;" vertex="1" parent="11CK9iJi00jFI3J6nmtW-144">
          <mxGeometry x="15" y="30" width="20" height="20" as="geometry" />
        </mxCell>
        <mxCell id="11CK9iJi00jFI3J6nmtW-146" style="edgeStyle=none;rounded=0;orthogonalLoop=1;jettySize=auto;html=1;exitX=0;exitY=0.5;exitDx=0;exitDy=0;strokeColor=default;align=center;verticalAlign=middle;fontFamily=Helvetica;fontSize=12;fontColor=default;labelBackgroundColor=default;endArrow=none;endFill=0;" edge="1" parent="1" source="11CK9iJi00jFI3J6nmtW-143" target="11CK9iJi00jFI3J6nmtW-137">
          <mxGeometry relative="1" as="geometry" />
        </mxCell>
        <mxCell id="11CK9iJi00jFI3J6nmtW-147" style="edgeStyle=none;rounded=0;orthogonalLoop=1;jettySize=auto;html=1;exitX=0;exitY=0.5;exitDx=0;exitDy=0;strokeColor=default;align=center;verticalAlign=middle;fontFamily=Helvetica;fontSize=12;fontColor=default;labelBackgroundColor=default;endArrow=none;endFill=0;" edge="1" parent="1" source="11CK9iJi00jFI3J6nmtW-145" target="11CK9iJi00jFI3J6nmtW-137">
          <mxGeometry relative="1" as="geometry" />
        </mxCell>
        <mxCell id="11CK9iJi00jFI3J6nmtW-153" value="sid" style="group" vertex="1" connectable="0" parent="1">
          <mxGeometry x="570" y="400" width="50" height="50" as="geometry" />
        </mxCell>
        <mxCell id="11CK9iJi00jFI3J6nmtW-154" value="" style="ellipse;whiteSpace=wrap;html=1;aspect=fixed;rounded=0;strokeColor=default;align=center;verticalAlign=middle;fontFamily=Helvetica;fontSize=12;fontColor=default;labelBackgroundColor=default;fillColor=default;" vertex="1" parent="11CK9iJi00jFI3J6nmtW-153">
          <mxGeometry x="15" y="30" width="20" height="20" as="geometry" />
        </mxCell>
        <mxCell id="11CK9iJi00jFI3J6nmtW-156" style="edgeStyle=none;rounded=0;orthogonalLoop=1;jettySize=auto;html=1;strokeColor=default;align=center;verticalAlign=middle;fontFamily=Helvetica;fontSize=12;fontColor=default;labelBackgroundColor=default;endArrow=none;endFill=0;" edge="1" parent="1" source="11CK9iJi00jFI3J6nmtW-154" target="11CK9iJi00jFI3J6nmtW-16">
          <mxGeometry relative="1" as="geometry" />
        </mxCell>
        <mxCell id="11CK9iJi00jFI3J6nmtW-157" value="pid" style="group" vertex="1" connectable="0" parent="1">
          <mxGeometry x="160" y="360" width="50" height="50" as="geometry" />
        </mxCell>
        <mxCell id="11CK9iJi00jFI3J6nmtW-158" value="" style="ellipse;whiteSpace=wrap;html=1;aspect=fixed;rounded=0;strokeColor=default;align=center;verticalAlign=middle;fontFamily=Helvetica;fontSize=12;fontColor=default;labelBackgroundColor=default;fillColor=default;" vertex="1" parent="11CK9iJi00jFI3J6nmtW-157">
          <mxGeometry x="15" y="30" width="20" height="20" as="geometry" />
        </mxCell>
        <mxCell id="11CK9iJi00jFI3J6nmtW-159" value="" style="edgeStyle=none;rounded=0;orthogonalLoop=1;jettySize=auto;html=1;strokeColor=default;align=center;verticalAlign=middle;fontFamily=Helvetica;fontSize=12;fontColor=default;labelBackgroundColor=default;endArrow=none;endFill=0;" edge="1" parent="1" source="11CK9iJi00jFI3J6nmtW-158" target="11CK9iJi00jFI3J6nmtW-12">
          <mxGeometry relative="1" as="geometry" />
        </mxCell>
        <mxCell id="11CK9iJi00jFI3J6nmtW-163" value="" style="edgeStyle=none;rounded=0;orthogonalLoop=1;jettySize=auto;html=1;strokeColor=default;align=center;verticalAlign=middle;fontFamily=Helvetica;fontSize=12;fontColor=default;labelBackgroundColor=default;endArrow=none;endFill=0;" edge="1" parent="1" source="11CK9iJi00jFI3J6nmtW-160" target="11CK9iJi00jFI3J6nmtW-162">
          <mxGeometry relative="1" as="geometry" />
        </mxCell>
        <mxCell id="11CK9iJi00jFI3J6nmtW-160" value="writes" style="rhombus;whiteSpace=wrap;html=1;rounded=0;" vertex="1" parent="1">
          <mxGeometry x="110" y="870" width="80" height="80" as="geometry" />
        </mxCell>
        <mxCell id="11CK9iJi00jFI3J6nmtW-178" style="edgeStyle=none;rounded=0;orthogonalLoop=1;jettySize=auto;html=1;strokeColor=default;align=center;verticalAlign=middle;fontFamily=Helvetica;fontSize=12;fontColor=default;labelBackgroundColor=default;endArrow=none;endFill=0;shape=flexArrow;startArrow=block;" edge="1" parent="1" source="11CK9iJi00jFI3J6nmtW-162">
          <mxGeometry relative="1" as="geometry">
            <mxPoint x="150" y="1080" as="targetPoint" />
          </mxGeometry>
        </mxCell>
        <mxCell id="11CK9iJi00jFI3J6nmtW-162" value="Entry" style="whiteSpace=wrap;html=1;align=center;rounded=0;strokeColor=default;verticalAlign=middle;fontFamily=Helvetica;fontSize=12;fontColor=default;fillColor=default;" vertex="1" parent="1">
          <mxGeometry x="100" y="1010" width="100" height="40" as="geometry" />
        </mxCell>
        <mxCell id="11CK9iJi00jFI3J6nmtW-164" style="edgeStyle=none;rounded=0;orthogonalLoop=1;jettySize=auto;html=1;strokeColor=default;align=center;verticalAlign=middle;fontFamily=Helvetica;fontSize=12;fontColor=default;labelBackgroundColor=default;endArrow=none;endFill=0;" edge="1" parent="1" source="11CK9iJi00jFI3J6nmtW-128" target="11CK9iJi00jFI3J6nmtW-124">
          <mxGeometry relative="1" as="geometry" />
        </mxCell>
        <mxCell id="11CK9iJi00jFI3J6nmtW-165" value="name" style="group" vertex="1" connectable="0" parent="1">
          <mxGeometry x="-200" y="650" width="50" height="50" as="geometry" />
        </mxCell>
        <mxCell id="11CK9iJi00jFI3J6nmtW-166" value="" style="ellipse;whiteSpace=wrap;html=1;aspect=fixed;rounded=0;strokeColor=default;align=center;verticalAlign=middle;fontFamily=Helvetica;fontSize=12;fontColor=default;labelBackgroundColor=default;fillColor=default;" vertex="1" parent="11CK9iJi00jFI3J6nmtW-165">
          <mxGeometry x="15" y="30" width="20" height="20" as="geometry" />
        </mxCell>
        <mxCell id="11CK9iJi00jFI3J6nmtW-171" value="SpiciesEntry" style="whiteSpace=wrap;html=1;align=center;rounded=0;strokeColor=default;verticalAlign=middle;fontFamily=Helvetica;fontSize=12;fontColor=default;fillColor=default;" vertex="1" parent="1">
          <mxGeometry x="-10" y="1110" width="100" height="40" as="geometry" />
        </mxCell>
        <mxCell id="11CK9iJi00jFI3J6nmtW-176" style="edgeStyle=none;rounded=0;orthogonalLoop=1;jettySize=auto;html=1;exitX=0.5;exitY=0;exitDx=0;exitDy=0;strokeColor=default;align=center;verticalAlign=middle;fontFamily=Helvetica;fontSize=12;fontColor=default;labelBackgroundColor=default;endArrow=none;endFill=0;" edge="1" parent="1" source="11CK9iJi00jFI3J6nmtW-172">
          <mxGeometry relative="1" as="geometry">
            <mxPoint x="150.23529411764707" y="1080" as="targetPoint" />
          </mxGeometry>
        </mxCell>
        <mxCell id="11CK9iJi00jFI3J6nmtW-172" value="PlanetEntry" style="whiteSpace=wrap;html=1;align=center;rounded=0;strokeColor=default;verticalAlign=middle;fontFamily=Helvetica;fontSize=12;fontColor=default;fillColor=default;" vertex="1" parent="1">
          <mxGeometry x="100" y="1110" width="100" height="40" as="geometry" />
        </mxCell>
        <mxCell id="11CK9iJi00jFI3J6nmtW-173" value="PersonEntry" style="whiteSpace=wrap;html=1;align=center;rounded=0;strokeColor=default;verticalAlign=middle;fontFamily=Helvetica;fontSize=12;fontColor=default;fillColor=default;" vertex="1" parent="1">
          <mxGeometry x="210" y="1110" width="100" height="40" as="geometry" />
        </mxCell>
        <mxCell id="11CK9iJi00jFI3J6nmtW-175" style="edgeStyle=none;rounded=0;orthogonalLoop=1;jettySize=auto;html=1;exitX=0.5;exitY=0;exitDx=0;exitDy=0;entryX=0.5;entryY=0;entryDx=0;entryDy=0;strokeColor=default;align=center;verticalAlign=middle;fontFamily=Helvetica;fontSize=12;fontColor=default;labelBackgroundColor=default;endArrow=none;endFill=0;" edge="1" parent="1" source="11CK9iJi00jFI3J6nmtW-171" target="11CK9iJi00jFI3J6nmtW-173">
          <mxGeometry relative="1" as="geometry">
            <mxPoint x="-70" y="1110" as="sourcePoint" />
            <Array as="points">
              <mxPoint x="40" y="1080" />
              <mxPoint x="260" y="1080" />
            </Array>
          </mxGeometry>
        </mxCell>
        <mxCell id="11CK9iJi00jFI3J6nmtW-187" style="edgeStyle=none;rounded=0;orthogonalLoop=1;jettySize=auto;html=1;strokeColor=default;align=center;verticalAlign=middle;fontFamily=Helvetica;fontSize=12;fontColor=default;labelBackgroundColor=default;endArrow=none;endFill=0;" edge="1" parent="1" source="11CK9iJi00jFI3J6nmtW-183" target="11CK9iJi00jFI3J6nmtW-20">
          <mxGeometry relative="1" as="geometry" />
        </mxCell>
        <mxCell id="11CK9iJi00jFI3J6nmtW-183" value="locatedOn" style="rhombus;whiteSpace=wrap;html=1;rounded=0;" vertex="1" parent="1">
          <mxGeometry x="10" y="650" width="80" height="80" as="geometry" />
        </mxCell>
        <mxCell id="11CK9iJi00jFI3J6nmtW-188" value="eid" style="group" vertex="1" connectable="0" parent="1">
          <mxGeometry x="160" y="950" width="50" height="50" as="geometry" />
        </mxCell>
        <mxCell id="11CK9iJi00jFI3J6nmtW-189" value="" style="ellipse;whiteSpace=wrap;html=1;aspect=fixed;rounded=0;strokeColor=default;align=center;verticalAlign=middle;fontFamily=Helvetica;fontSize=12;fontColor=default;labelBackgroundColor=default;fillColor=default;" vertex="1" parent="11CK9iJi00jFI3J6nmtW-188">
          <mxGeometry x="15" y="30" width="20" height="20" as="geometry" />
        </mxCell>
        <mxCell id="11CK9iJi00jFI3J6nmtW-190" value="" style="edgeStyle=none;rounded=0;orthogonalLoop=1;jettySize=auto;html=1;strokeColor=default;align=center;verticalAlign=middle;fontFamily=Helvetica;fontSize=12;fontColor=default;labelBackgroundColor=default;endArrow=none;endFill=0;" edge="1" parent="1" source="11CK9iJi00jFI3J6nmtW-189" target="11CK9iJi00jFI3J6nmtW-162">
          <mxGeometry relative="1" as="geometry" />
        </mxCell>
        <mxCell id="11CK9iJi00jFI3J6nmtW-191" value="text" style="group" vertex="1" connectable="0" parent="1">
          <mxGeometry x="195" y="960" width="50" height="50" as="geometry" />
        </mxCell>
        <mxCell id="11CK9iJi00jFI3J6nmtW-192" value="" style="ellipse;whiteSpace=wrap;html=1;aspect=fixed;rounded=0;strokeColor=default;align=center;verticalAlign=middle;fontFamily=Helvetica;fontSize=12;fontColor=default;labelBackgroundColor=default;fillColor=default;" vertex="1" parent="11CK9iJi00jFI3J6nmtW-191">
          <mxGeometry x="15" y="30" width="20" height="20" as="geometry" />
        </mxCell>
        <mxCell id="11CK9iJi00jFI3J6nmtW-193" style="edgeStyle=none;rounded=0;orthogonalLoop=1;jettySize=auto;html=1;strokeColor=default;align=center;verticalAlign=middle;fontFamily=Helvetica;fontSize=12;fontColor=default;labelBackgroundColor=default;endArrow=none;endFill=0;" edge="1" parent="1" source="11CK9iJi00jFI3J6nmtW-192" target="11CK9iJi00jFI3J6nmtW-162">
          <mxGeometry relative="1" as="geometry" />
        </mxCell>
        <mxCell id="11CK9iJi00jFI3J6nmtW-196" style="edgeStyle=none;rounded=0;orthogonalLoop=1;jettySize=auto;html=1;entryX=0.5;entryY=0;entryDx=0;entryDy=0;strokeColor=default;align=center;verticalAlign=middle;fontFamily=Helvetica;fontSize=12;fontColor=default;labelBackgroundColor=default;endArrow=none;endFill=0;" edge="1" parent="1" source="11CK9iJi00jFI3J6nmtW-194" target="11CK9iJi00jFI3J6nmtW-96">
          <mxGeometry relative="1" as="geometry">
            <Array as="points">
              <mxPoint x="-100" y="630" />
            </Array>
          </mxGeometry>
        </mxCell>
        <mxCell id="11CK9iJi00jFI3J6nmtW-194" value="leads" style="rhombus;whiteSpace=wrap;html=1;rounded=0;" vertex="1" parent="1">
          <mxGeometry x="220" y="590" width="80" height="80" as="geometry" />
        </mxCell>
      </root>
    </mxGraphModel>
  </diagram>
</mxfile>
